<svg xmlns="http://www.w3.org/2000/svg" viewBox="0 0 480 160" fill="none">
  <defs>
    <linearGradient id="g" x1="0" y1="0" x2="1" y2="1">
      <stop offset="0%" stop-color="#646cff"/>
      <stop offset="100%" stop-color="#c084fc"/>
    </linearGradient>
  </defs>
  <!-- Pulse/waveform bars representing "vibe" -->
  <rect x="60" y="70" width="10" height="60" rx="5" fill="url(#g)" opacity="0.3"/>
  <rect x="80" y="50" width="10" height="80" rx="5" fill="url(#g)" opacity="0.4"/>
  <rect x="100" y="35" width="10" height="95" rx="5" fill="url(#g)" opacity="0.55"/>
  <rect x="120" y="20" width="10" height="110" rx="5" fill="url(#g)" opacity="0.7"/>
  <rect x="140" y="10" width="10" height="120" rx="5" fill="url(#g)" opacity="0.85"/>
  <rect x="160" y="25" width="10" height="105" rx="5" fill="url(#g)" opacity="0.7"/>
  <rect x="180" y="40" width="10" height="90" rx="5" fill="url(#g)" opacity="0.55"/>
  <rect x="200" y="55" width="10" height="75" rx="5" fill="url(#g)" opacity="0.4"/>
  <rect x="220" y="65" width="10" height="65" rx="5" fill="url(#g)" opacity="0.3"/>
  <!-- Uploop lightning bolt -->
  <polygon points="250,120 270,70 260,70 280,20 250,80 260,80 240,120" fill="url(#g)"/>
  <!-- Text -->
  <text x="295" y="85" font-family="Inter,Segoe UI,system-ui,sans-serif" font-size="42" font-weight="800" fill="#212529">Vibe</text>
  <text x="295" y="115" font-family="Inter,Segoe UI,system-ui,sans-serif" font-size="14" font-weight="600" fill="#868e96" letter-spacing="2">AI-FIRST COMPONENTS</text>
</svg>
